<?xml version="1.0" encoding="UTF-8" standalone="no"?>
<!-- Created with Inkscape (http://www.inkscape.org/) -->

<svg
   xmlns:dc="http://purl.org/dc/elements/1.1/"
   xmlns:cc="http://creativecommons.org/ns#"
   xmlns:rdf="http://www.w3.org/1999/02/22-rdf-syntax-ns#"
   xmlns:svg="http://www.w3.org/2000/svg"
   xmlns="http://www.w3.org/2000/svg"
   xmlns:sodipodi="http://sodipodi.sourceforge.net/DTD/sodipodi-0.dtd"
   xmlns:inkscape="http://www.inkscape.org/namespaces/inkscape"
   version="1.0"
   width="342.32443"
   height="155.24008"
   id="svg2172"
   sodipodi:version="0.32"
   inkscape:version="0.48.3.1 r9886"
   sodipodi:docname="tren.svg"
   inkscape:output_extension="org.inkscape.output.svg.inkscape">
  <metadata
     id="metadata21">
    <rdf:RDF>
      <cc:Work
         rdf:about="">
        <dc:format>image/svg+xml</dc:format>
        <dc:type
           rdf:resource="http://purl.org/dc/dcmitype/StillImage" />
        <dc:title></dc:title>
      </cc:Work>
    </rdf:RDF>
  </metadata>
  <sodipodi:namedview
     inkscape:window-height="738"
     inkscape:window-width="1276"
     inkscape:pageshadow="2"
     inkscape:pageopacity="0"
     guidetolerance="10.0"
     gridtolerance="10.0"
     objecttolerance="10.0"
     borderopacity="1.0"
     bordercolor="#666666"
     pagecolor="#ffffff"
     id="base"
     showgrid="false"
     inkscape:zoom="1.5800488"
     inkscape:cx="321.04339"
     inkscape:cy="-12.020888"
     inkscape:window-x="0"
     inkscape:window-y="0"
     inkscape:current-layer="svg2172"
     inkscape:window-maximized="0" />
  <defs
     id="defs2174">
    <inkscape:perspective
       sodipodi:type="inkscape:persp3d"
       inkscape:vp_x="0 : 30.151802 : 1"
       inkscape:vp_y="0 : 1000 : 0"
       inkscape:vp_z="128 : 30.151802 : 1"
       inkscape:persp3d-origin="64 : 20.101201 : 1"
       id="perspective23" />
  </defs>
  <g
     transform="translate(-0.1459157,-29.434835)"
     id="layer2"
     style="display:inline" />
  <g
     id="g3004"
     transform="matrix(-1,0,0,1,342.32444,0)">
    <path
       style="fill:#ffffff;fill-rule:evenodd;stroke:#000000;stroke-width:1.53620195;stroke-linecap:butt;stroke-linejoin:miter;stroke-miterlimit:4;stroke-opacity:1;stroke-dasharray:none"
       id="path3335"
       d="M 341.55634,50.928368 180.48374,4.2479447 C 165.49724,-0.24800621 123.22202,-2.0674274 98.918725,9.3686177 70.758552,22.619537 46.980471,43.018757 32.349976,64.232973 17.719487,85.447189 1.9917033,114.70818 0.89441628,123.48648 c -1.097287,8.77829 4.96088602,23.33909 17.92235372,27.43218 13.898971,4.38914 45.330312,5.69014 96.19551,-1.82881 32.30777,-4.77578 226.40689,-76.810103 226.40689,-76.810103 l 0.13717,-21.351379 z"
       inkscape:connector-curvature="0" />
    <path
       style="fill:#000000;fill-opacity:1;fill-rule:evenodd;stroke:none;display:inline"
       id="path4309"
       d="m 180.7672,41.516551 c -20.08681,0.253402 -50.54351,19.281172 -73.8497,40.597336 -1.06251,0.971791 -0.74615,1.876757 0.94412,1.536201 8.89266,-1.791667 33.51036,-5.578558 44.27782,-6.256822 16.00416,-1.008138 50.06699,-3.435813 84.93917,-5.984786 l 0,-24.435212 c -26.01344,-2.808274 -48.34825,-5.121769 -54.40716,-5.424713 -0.62579,-0.03143 -1.25629,-0.04018 -1.90425,-0.032 z m 63.35233,3.328437 c -1.8237,0 -3.28043,5.093237 -3.28043,11.425502 l 0,5.680747 c 0,6.33226 1.45673,11.425501 3.28043,11.425501 1.8237,0 3.29643,-5.093246 3.29643,-11.425501 l 0,-5.680747 c 0,-6.33226 -1.47274,-11.425502 -3.29643,-11.425502 z m 6.12881,3.568469 0,22.018894 c 27.00052,-1.982212 50.09154,-3.68647 67.38485,-4.976654 l 0,-9.553255 c -17.88846,-2.013516 -41.53136,-4.665666 -67.38485,-7.488985 z m 69.2411,7.697012 0,9.201209 c 3.59283,-0.268205 4.23588,-0.309145 7.15294,-0.528069 l 0,-7.857033 c -2.93242,-0.330519 -3.69644,-0.42669 -7.15294,-0.816107 z m 10.64139,1.200158 0,7.200946 c 4.99732,-0.375652 11.10546,-0.832109 11.10546,-0.832109 l 0,-5.120673 c 0,0 -6.09522,-0.685157 -11.10546,-1.248164 z"
       inkscape:connector-curvature="0" />
    <path
       sodipodi:nodetypes="cssscccccccccssssscccsssssssssssssc"
       style="fill:#ff0000;display:inline"
       id="path2283"
       d="m 340.69789,66.002868 c -1.39193,0.02837 -2.4889,0.155072 -2.88591,0.173461 -1.42889,0.06617 -2.74272,0.741786 -3.05654,1.055602 -0.6348,0.634799 -0.14493,0.870213 2.5767,0.776282 1.04106,-0.03593 2.65732,-0.429607 3.36986,-0.469166 -0.017,-0.799057 -0.007,-0.735802 -0.004,-1.536179 z m -7.8787,1.021035 c -4.49373,0.16484 -8.91949,0.626904 -13.32975,1.168154 l 0,2.592341 c 3.74347,-0.675259 7.83717,-1.407832 11.26548,-1.888249 2.0675,-0.464537 3.18389,-1.925793 2.06427,-1.872246 z m -15.186,1.408185 c -3.71215,0.470406 -7.42453,0.974736 -11.15346,1.376181 -1.97146,0.257724 -8.29237,1.062187 -14.04985,1.792236 -10.27638,1.303052 -11.60778,1.696084 -11.02545,3.280431 0.13786,0.375079 0.24003,1.049548 0.24003,1.488196 0,1.002084 1.09146,0.875286 15.87409,-1.888249 6.05519,-1.131991 8.62985,-1.533892 12.49764,-2.064271 1.65035,-0.226308 4.48304,-0.744684 7.617,-1.312172 l 0,-2.672352 z m -40.72535,5.47272 c -2.85859,0.0033 -14.86929,1.238117 -34.69256,3.584471 -2.39391,0.283352 -14.26108,1.675704 -26.37147,3.088406 -12.11039,1.412696 -25.59056,3.030086 -29.95593,3.600473 -4.36538,0.570386 -13.58259,1.736481 -20.48269,2.592341 -23.36715,2.898367 -72.263352,9.416605 -74.521804,9.937306 -0.896722,0.206747 -8.36824,8.695155 -8.849163,10.049325 -0.09388,0.26434 0.593025,0.48006 1.536202,0.48006 1.784954,0 41.922735,-4.6911 59.303795,-6.92891 5.49193,-0.70709 12.40483,-1.517299 15.36202,-1.80824 8.03728,-0.790724 11.81341,-1.326961 19.71459,-2.768364 3.94292,-0.719296 11.20147,-1.991552 16.13012,-2.832372 27.72433,-4.729766 80.80632,-14.147221 82.52285,-14.641924 0.84809,-0.24442 1.54096,-3.348772 0.96013,-4.288564 -0.0312,-0.05042 -0.24772,-0.06449 -0.65609,-0.06401 z"
       inkscape:connector-curvature="0" />
    <path
       style="fill:#000000;fill-rule:evenodd;stroke:none"
       id="path5308"
       d="M 139.51836,20.890137 C 135.32973,24.29942 96.175509,59.843824 88.31162,63.501449 80.447731,67.159074 57.587582,72.645506 45.883188,71.913982 34.178789,71.182458 30.704049,70.00942 29.60676,68.363487 48.294902,39.819719 75.444951,21.150999 97.455677,10.077959 113.00058,7.151863 133.33198,9.50599 136.77514,11.928954 c 4.93779,3.474745 5.60022,6.635752 2.74322,8.961183 z"
       inkscape:connector-curvature="0" />
    <path
       style="fill:#aaccff;fill-rule:evenodd;stroke:#000000;stroke-width:0.51206732px;stroke-linecap:butt;stroke-linejoin:miter;stroke-opacity:1"
       id="path7248"
       d="M 62.255813,107.14974 78.679015,85.94182 c -9.73291,0.424012 -20.130554,1.989668 -23.14766,4.914028 -3.084458,2.989644 -10.086686,13.190292 -10.086686,13.190292 l 16.811144,3.1036 z"
       inkscape:connector-curvature="0" />
    <path
       style="fill:#aaccff;fill-rule:evenodd;stroke:#000000;stroke-width:0.51206732px;stroke-linecap:butt;stroke-linejoin:miter;stroke-opacity:1;display:inline"
       id="path7252"
       d="m 10.917159,100.03733 1.03453,0.25863 c 0,0 4.412217,-7.727308 5.043345,-9.440112 0.394379,-1.070292 0.129318,-1.939747 0.129318,-1.939747 l -6.207193,11.121229 z"
       inkscape:connector-curvature="0" />
    <path
       style="fill:none;stroke:#ff0000;stroke-width:1.02413464;stroke-linecap:butt;stroke-linejoin:miter;stroke-miterlimit:4;stroke-opacity:1;stroke-dasharray:none"
       id="path7255"
       d="m 32.254379,96.416459 c 0.35562,1.066861 -3.750176,9.246141 -4.655394,9.828061 -0.815836,0.52447 -9.172282,-0.80951 -9.828056,-1.81043 -0.614256,-0.93754 4.021234,-9.249179 4.784716,-9.698743 0.700871,-0.412706 9.353856,0.64648 9.698734,1.681112 z"
       inkscape:connector-curvature="0" />
    <path
       style="fill:none;stroke:#000000;stroke-width:0.51206732px;stroke-linecap:butt;stroke-linejoin:miter;stroke-opacity:1;display:inline"
       id="path7250"
       d="m 8.0721901,105.20999 c 0,0 35.2978949,4.95115 44.7435189,6.33651 9.698739,1.42248 14.20828,5.52961 15.647302,10.216 1.475348,4.80471 2.457006,24.44083 -3.362234,32.19982"
       inkscape:connector-curvature="0" />
    <path
       style="fill:none;stroke:#000000;stroke-width:0.51206732px;stroke-linecap:butt;stroke-linejoin:miter;stroke-opacity:1"
       id="path11134"
       d="m 311.90137,42.2975 c 2.5025,1.390278 6.48441,5.849099 6.53048,12.41438 l 0.12932,18.427607 c 0.0232,3.313255 -0.26685,5.889634 -1.24745,7.96406"
       inkscape:connector-curvature="0" />
    <path
       style="fill:#000000;fill-opacity:1;fill-rule:evenodd;stroke:none;display:inline"
       id="path11142"
       d="m 328.46357,56.848798 c -0.5328,0 -0.9584,1.488017 -0.9584,3.338029 l 0,1.659661 c 0,1.850007 0.4256,3.338029 0.9584,3.338029 0.53281,0 0.96307,-1.488022 0.96307,-3.338029 l 0,-1.659661 c 0,-1.850007 -0.43026,-3.338029 -0.96307,-3.338029 z"
       inkscape:connector-curvature="0" />
    <path
       style="fill:#000000;fill-opacity:1;fill-rule:evenodd;stroke:none"
       id="path12118"
       d="m 327.01042,74.928942 -6.67287,2.064272 0.19202,2.832372 6.44885,-2.288301 0.032,-2.608343 z m -11.60152,3.520463 -7.77702,2.240294 0.17602,3.888511 7.77702,-2.832372 -0.17602,-3.296433 z m -84.36309,24.915275 c -22.40312,6.50214 -45.35905,11.9115 -68.489,17.20227 -2.55704,0.86915 -14.59404,15.49743 -17.28227,20.29066 30.90692,-9.60128 85.32321,-28.70777 85.32321,-28.70777 l 0.44806,-8.78516 z"
       inkscape:connector-curvature="0" />
    <path
       style="fill:none;stroke:#000000;stroke-width:0.51206732px;stroke-linecap:butt;stroke-linejoin:miter;stroke-opacity:1"
       id="path12116"
       d="M 69.238905,136.76322 C 110.36157,133.40099 193.38277,114.52078 236.31586,101.84776 279.24894,89.174736 341.57951,70.553153 341.57951,70.553153"
       inkscape:connector-curvature="0" />
  </g>
  <g
     transform="translate(-0.1459157,-29.434835)"
     id="layer3"
     style="display:inline" />
</svg>
